<?xml version="1.0" encoding="UTF-8" standalone="no" ?>
<!DOCTYPE svg PUBLIC "-//W3C//DTD SVG 1.1//EN" "http://www.w3.org/Graphics/SVG/1.1/DTD/svg11.dtd">
<svg xmlns="http://www.w3.org/2000/svg" xmlns:xlink="http://www.w3.org/1999/xlink" version="1.1" width="1080" height="1080" viewBox="0 0 1080 1080" xml:space="preserve">
<desc>Created with Fabric.js 5.2.4</desc>
<defs>
</defs>
<g transform="matrix(1 0 0 1 540 540)" id="f53eb265-b562-4eb6-9561-c67b6ab5c95d"  >
</g>
<g transform="matrix(1 0 0 1 540 540)" id="7e802032-fc3e-4a9f-b5b8-f68501453940"  >
<rect style="stroke: none; stroke-width: 1; stroke-dasharray: none; stroke-linecap: butt; stroke-dashoffset: 0; stroke-linejoin: miter; stroke-miterlimit: 4; fill: rgb(1,203,242); fill-rule: nonzero; opacity: 1;" vector-effect="non-scaling-stroke"  x="-540" y="-540" rx="0" ry="0" width="1080" height="1080" />
</g>
<g transform="matrix(-0.45 0 0 -0.45 540 540)"  >
<path style="stroke: rgb(146,59,59); stroke-width: 0; stroke-dasharray: none; stroke-linecap: butt; stroke-dashoffset: 0; stroke-linejoin: miter; stroke-miterlimit: 4; fill: rgb(23,34,54); fill-rule: nonzero; opacity: 1;" vector-effect="non-scaling-stroke"  transform=" translate(-1515, -1225)" d="M 0 1225 L 0 0 L 1515 0 L 3030 0 L 3030 1225 L 3030 2450 L 1515 2450 L 0 2450 L 0 1225 z M 1790 2138 C 1877 2097 1935 2049 1991 1974 L 2031 1920 L 2090 1920 C 2235 1920 2360 1797 2360 1655 C 2360 1632 2366 1621 2383 1613 C 2527 1550 2609 1477 2661 1366 C 2768 1137 2671 858 2447 751 C 2361 710 2299 700 2118 700 C 1998 700 1969 703 1956 716 C 1942 729 1940 771 1940 1025 C 1940 1257 1937 1321 1927 1327 C 1903 1341 1880 1384 1880 1412 C 1880 1428 1892 1453 1909 1472 C 1933 1499 1945 1505 1980 1505 C 2015 1505 2027 1499 2051 1472 C 2091 1428 2090 1382 2050 1342 L 2020 1312 L 2020 1046 L 2020 780 L 2090 780 L 2160 780 L 2160 919 C 2160 1035 2157 1059 2145 1064 C 2136 1067 2123 1083 2116 1100 C 2073 1203 2193 1289 2271 1211 C 2311 1171 2311 1123 2270 1077 L 2240 1042 L 2240 910 L 2240 777 L 2291 783 C 2355 791 2452 836 2507 884 C 2534 908 2563 949 2587 998 C 2623 1070 2625 1079 2625 1169 C 2625 1253 2621 1273 2596 1328 C 2548 1433 2443 1517 2320 1550 L 2280 1561 L 2280 1626 C 2280 1783 2178 1868 2028 1836 L 1992 1828 L 1950 1894 C 1863 2031 1739 2103 1588 2103 C 1465 2102 1388 2069 1291 1973 C 1250 1933 1215 1900 1213 1900 C 1210 1900 1177 1910 1138 1921 C 1020 1957 901 1929 816 1844 C 773 1800 730 1719 730 1678 C 730 1624 713 1601 654 1575 C 513 1512 423 1387 404 1225 C 397 1168 418 1072 452 1000 C 496 909 610 822 725 791 C 793 773 790 767 790 914 L 790 1048 L 760 1080 C 727 1116 723 1146 745 1190 C 776 1250 854 1260 901 1209 C 940 1167 940 1122 900 1076 L 869 1042 L 872 913 L 875 785 L 945 785 L 1015 785 L 1018 1043 L 1020 1302 L 990 1336 C 913 1424 998 1548 1098 1496 C 1159 1464 1169 1393 1120 1337 L 1090 1302 L 1090 1013 C 1090 802 1087 721 1078 712 C 1063 697 822 696 731 710 C 617 729 497 803 425 900 C 347 1008 315 1130 331 1264 C 349 1405 456 1559 583 1625 C 640 1655 641 1656 661 1725 C 701 1859 794 1954 923 1995 C 1014 2024 1066 2026 1139 2004 L 1192 1989 L 1251 2045 C 1307 2098 1417 2160 1480 2173 C 1494 2176 1552 2177 1610 2176 C 1707 2174 1721 2171 1790 2138 z M 1780 1476 C 1780 1468 1761 1425 1739 1379 C 1702 1304 1662 1221 1576 1039 C 1562 1008 1550 978 1550 972 C 1550 963 1590 960 1686 960 C 1798 960 1821 958 1817 946 C 1812 933 1651 673 1575 555 C 1557 528 1521 470 1494 427 C 1415 300 1336 180 1334 183 C 1333 184 1336 210 1341 240 C 1346 270 1359 370 1370 461 C 1381 553 1395 651 1400 680 C 1418 775 1423 770 1309 770 L 1207 770 L 1214 843 C 1218 882 1232 978 1245 1055 C 1258 1132 1271 1218 1274 1245 C 1281 1299 1309 1457 1315 1478 C 1322 1497 1780 1496 1780 1476 z" stroke-linecap="round" />
</g>
<g transform="matrix(0 0 0 0 0 0)"  >
<g style=""   >
</g>
</g>
<g transform="matrix(0 0 0 0 0 0)"  >
<g style=""   >
</g>
</g>
<g transform="matrix(0 0 0 0 0 0)"  >
<g style=""   >
</g>
</g>
<g transform="matrix(0 0 0 0 0 0)"  >
<g style=""   >
</g>
</g>
<g transform="matrix(0 0 0 0 0 0)"  >
<g style=""   >
</g>
</g>
<g transform="matrix(0 0 0 0 0 0)"  >
<g style=""   >
</g>
</g>
</svg>