<?xml version="1.0"?>
<svg width="700" height="700" xmlns="http://www.w3.org/2000/svg" xmlns:svg="http://www.w3.org/2000/svg" xmlns:xlink="http://www.w3.org/1999/xlink" version="1.1">
 <defs>
  <symbol id="s" overflow="visible">
   <path d="m27.58,-1.66c-1.42,0.75 -2.9,1.3 -4.44,1.68c-1.54,0.37 -3.15,0.56 -4.83,0.56c-5,0 -8.96,-1.4 -11.89,-4.19c-2.92,-2.79 -4.37,-6.58 -4.37,-11.37c0,-4.79 1.45,-8.59 4.37,-11.38c2.93,-2.8 6.89,-4.2 11.89,-4.2c1.68,0 3.29,0.19 4.83,0.56c1.54,0.38 3.02,0.93 4.44,1.67l0,6.22c-1.43,-0.98 -2.84,-1.69 -4.24,-2.16c-1.39,-0.45 -2.86,-0.68 -4.4,-0.68c-2.76,0 -4.94,0.88 -6.52,2.65c-1.58,1.78 -2.37,4.21 -2.37,7.32c0,3.1 0.79,5.54 2.37,7.31c1.58,1.76 3.76,2.64 6.52,2.64c1.54,0 3.01,-0.22 4.4,-0.67c1.4,-0.46 2.81,-1.18 4.24,-2.16l0,6.2z" id="svg_1"/>
  </symbol>
  <symbol id="c" overflow="visible">
   <path d="m20.19,-16.39c-0.64,-0.29 -1.27,-0.5 -1.89,-0.64c-0.62,-0.15 -1.24,-0.22 -1.88,-0.22c-1.84,0 -3.26,0.59 -4.26,1.78s-1.5,2.89 -1.5,5.09l0,10.38l-7.21,0l0,-22.52l7.21,0l0,3.71c0.92,-1.48 1.99,-2.56 3.18,-3.24c1.2,-0.67 2.64,-1.01 4.32,-1.01c0.24,0 0.5,0.01 0.78,0.03c0.28,0.02 0.69,0.07 1.22,0.14l0.03,6.5z" id="svg_2"/>
  </symbol>
  <symbol id="b" overflow="visible">
   <path d="m25.94,-11.31l0,2.04l-16.83,0c0.18,1.69 0.79,2.96 1.83,3.8c1.04,0.85 2.5,1.27 4.37,1.27c1.52,0 3.07,-0.23 4.66,-0.67c1.59,-0.45 3.23,-1.13 4.91,-2.05l0,5.56c-1.72,0.64 -3.42,1.12 -5.13,1.44c-1.7,0.33 -3.4,0.5 -5.09,0.5c-4.08,0 -7.25,-1.03 -9.5,-3.1c-2.27,-2.07 -3.39,-4.97 -3.39,-8.71c0,-3.68 1.11,-6.57 3.32,-8.68c2.22,-2.1 5.27,-3.15 9.16,-3.15c3.54,0 6.38,1.07 8.5,3.2c2.13,2.13 3.19,4.98 3.19,8.55zm-7.41,-2.39c0,-1.38 -0.4,-2.48 -1.2,-3.32c-0.79,-0.84 -1.83,-1.26 -3.11,-1.26c-1.4,0 -2.53,0.4 -3.41,1.19c-0.86,0.78 -1.4,1.91 -1.62,3.39l9.34,0z" id="svg_3"/>
  </symbol>
  <symbol id="j" overflow="visible">
   <path d="m13.55,-10.13c-1.5,0 -2.64,0.26 -3.39,0.77c-0.75,0.5 -1.13,1.25 -1.13,2.25c0,0.91 0.3,1.62 0.91,2.14c0.61,0.51 1.46,0.77 2.54,0.77c1.36,0 2.49,-0.49 3.41,-1.46c0.93,-0.97 1.39,-2.18 1.39,-3.65l0,-0.81l-3.73,-0.01zm11,-2.71l0,12.84l-7.27,0l0,-3.34c-0.96,1.37 -2.04,2.37 -3.25,3c-1.21,0.61 -2.68,0.92 -4.4,0.92c-2.34,0 -4.24,-0.68 -5.69,-2.03c-1.45,-1.37 -2.17,-3.13 -2.17,-5.3c0,-2.64 0.9,-4.58 2.71,-5.81c1.82,-1.24 4.68,-1.86 8.57,-1.86l4.23,0l0,-0.56c0,-1.14 -0.45,-1.97 -1.34,-2.5c-0.9,-0.54 -2.3,-0.8 -4.21,-0.8c-1.54,0 -2.97,0.16 -4.29,0.47c-1.33,0.31 -2.56,0.77 -3.71,1.39l0,-5.49c1.54,-0.37 3.09,-0.66 4.65,-0.86c1.56,-0.19 3.11,-0.29 4.67,-0.29c4.06,0 6.99,0.8 8.79,2.4c1.8,1.61 2.71,4.21 2.71,7.82z" id="svg_4"/>
  </symbol>
  <symbol id="a" overflow="visible">
   <path d="m11.31,-28.91l0,6.39l7.42,0l0,5.15l-7.42,0l0,9.56c0,1.04 0.21,1.75 0.63,2.12c0.41,0.37 1.24,0.55 2.48,0.55l3.69,0l0,5.14l-6.17,0c-2.85,0 -4.86,-0.59 -6.05,-1.78c-1.18,-1.19 -1.77,-3.2 -1.77,-6.03l0,-9.56l-3.57,0l0,-5.15l3.57,0l0,-6.39l7.19,0z" id="svg_5"/>
  </symbol>
  <symbol id="i" overflow="visible">
   <path d="m18.78,-19.22l0,-12.06l7.24,0l0,31.28l-7.24,0l0,-3.25c-1,1.32 -2.1,2.29 -3.3,2.91c-1.18,0.61 -2.56,0.92 -4.12,0.92c-2.77,0 -5.06,-1.1 -6.84,-3.3c-1.79,-2.21 -2.68,-5.05 -2.68,-8.51s0.89,-6.31 2.68,-8.52c1.78,-2.21 4.07,-3.31 6.84,-3.31c1.55,0 2.92,0.31 4.12,0.93c1.2,0.63 2.3,1.6 3.3,2.91zm-4.75,14.58c1.54,0 2.72,-0.56 3.53,-1.69s1.22,-2.76 1.22,-4.9c0,-2.15 -0.41,-3.79 -1.22,-4.91s-1.99,-1.69 -3.53,-1.69c-1.53,0 -2.7,0.56 -3.51,1.69c-0.81,1.12 -1.21,2.76 -1.21,4.91c0,2.14 0.4,3.78 1.21,4.9c0.81,1.13 1.98,1.69 3.51,1.69z" id="svg_6"/>
  </symbol>
  <symbol id="h" overflow="visible">
   <path d="m15.44,-4.64c1.54,0 2.72,-0.56 3.53,-1.69s1.22,-2.76 1.22,-4.9c0,-2.15 -0.41,-3.79 -1.22,-4.91s-1.99,-1.69 -3.53,-1.69c-1.55,0 -2.73,0.57 -3.55,1.71c-0.82,1.12 -1.23,2.75 -1.23,4.89c0,2.12 0.41,3.75 1.23,4.89c0.82,1.13 2.01,1.7 3.55,1.7zm-4.78,-14.58c0.99,-1.31 2.08,-2.28 3.29,-2.9c1.21,-0.63 2.6,-0.94 4.16,-0.94c2.78,0 5.06,1.1 6.84,3.31c1.78,2.21 2.68,5.05 2.68,8.52s-0.9,6.3 -2.68,8.51c-1.78,2.2 -4.06,3.3 -6.84,3.3c-1.56,0 -2.95,-0.31 -4.16,-0.92c-1.21,-0.63 -2.3,-1.6 -3.29,-2.91l0,3.25l-7.21,0l0,-31.28l7.21,0l0,12.06z" id="svg_7"/>
  </symbol>
  <symbol id="g" overflow="visible">
   <path d="m0.5,-22.52l7.2,0l6.05,15.29l5.14,-15.29l7.2,0l-9.47,24.65c-0.94,2.5 -2.05,4.26 -3.32,5.26c-1.26,1 -2.94,1.5 -5.02,1.5l-4.16,0l0,-4.73l2.25,0c1.22,0 2.11,-0.2 2.66,-0.58c0.56,-0.39 0.99,-1.09 1.3,-2.1l0.2,-0.62l-10.03,-23.38z" id="svg_8"/>
  </symbol>
  <symbol id="f" overflow="visible">
   <path d="m0.2,-30.02l7.78,0l7.96,22.16l7.95,-22.16l7.77,0l-11.11,30.02l-9.24,0l-11.11,-30.02z" id="svg_9"/>
  </symbol>
  <symbol id="r" overflow="visible">
   <path d="m21.66,-21.81l0,5.87c-0.98,-0.67 -1.97,-1.17 -2.96,-1.48c-0.98,-0.32 -2,-0.49 -3.06,-0.49c-2.01,0 -3.58,0.59 -4.7,1.77c-1.12,1.17 -1.67,2.8 -1.67,4.91c0,2.1 0.55,3.74 1.67,4.92c1.12,1.17 2.69,1.75 4.7,1.75c1.13,0 2.19,-0.17 3.2,-0.5c1.01,-0.33 1.95,-0.83 2.82,-1.49l0,5.89c-1.13,0.41 -2.28,0.72 -3.44,0.93c-1.16,0.2 -2.32,0.31 -3.49,0.31c-4.06,0 -7.24,-1.04 -9.53,-3.13c-2.29,-2.08 -3.43,-4.97 -3.43,-8.68c0,-3.72 1.14,-6.62 3.43,-8.71c2.29,-2.08 5.47,-3.12 9.53,-3.12c1.18,0 2.34,0.1 3.49,0.31c1.14,0.21 2.29,0.52 3.44,0.94z" id="svg_10"/>
  </symbol>
  <symbol id="e" overflow="visible">
   <path d="m14.17,-17.91c-1.59,0 -2.81,0.58 -3.65,1.72c-0.84,1.15 -1.25,2.8 -1.25,4.96s0.41,3.8 1.25,4.95c0.84,1.15 2.06,1.72 3.65,1.72c1.57,0 2.77,-0.57 3.6,-1.72c0.83,-1.15 1.25,-2.8 1.25,-4.95s-0.42,-3.81 -1.25,-4.96c-0.83,-1.14 -2.03,-1.72 -3.6,-1.72zm0,-5.15c3.88,0 6.9,1.04 9.08,3.14c2.18,2.09 3.27,4.99 3.27,8.69c0,3.7 -1.09,6.59 -3.27,8.68c-2.18,2.09 -5.2,3.13 -9.08,3.13c-3.88,0 -6.93,-1.04 -9.12,-3.13c-2.19,-2.09 -3.28,-4.98 -3.28,-8.68c0,-3.7 1.09,-6.6 3.28,-8.69c2.19,-2.1 5.24,-3.14 9.12,-3.14z" id="svg_11"/>
  </symbol>
  <symbol id="q" overflow="visible">
   <path d="m21.05,-21.81l0,5.47c-1.55,-0.65 -3.03,-1.13 -4.47,-1.46c-1.43,-0.32 -2.78,-0.48 -4.05,-0.48c-1.37,0 -2.4,0.17 -3.06,0.51c-0.66,0.35 -0.99,0.88 -0.99,1.58c0,0.59 0.25,1.03 0.75,1.35c0.5,0.3 1.4,0.52 2.71,0.67l1.26,0.19c3.69,0.46 6.17,1.24 7.44,2.31c1.28,1.06 1.92,2.74 1.92,5.03c0,2.41 -0.88,4.21 -2.65,5.42c-1.78,1.2 -4.42,1.8 -7.93,1.8c-1.49,0 -3.03,-0.12 -4.62,-0.36c-1.59,-0.23 -3.22,-0.58 -4.89,-1.05l0,-5.47c1.44,0.7 2.91,1.23 4.41,1.58c1.5,0.35 3.04,0.52 4.6,0.52c1.41,0 2.47,-0.19 3.18,-0.58c0.7,-0.4 1.06,-0.97 1.06,-1.74c0,-0.64 -0.25,-1.12 -0.74,-1.43c-0.49,-0.32 -1.46,-0.56 -2.92,-0.74l-1.26,-0.15c-3.21,-0.41 -5.46,-1.15 -6.75,-2.24c-1.28,-1.08 -1.92,-2.72 -1.92,-4.94c0,-2.38 0.81,-4.15 2.45,-5.31c1.63,-1.15 4.14,-1.73 7.53,-1.73c1.32,0 2.71,0.1 4.17,0.31c1.46,0.2 3.05,0.51 4.77,0.94z" id="svg_12"/>
  </symbol>
  <symbol id="d" overflow="visible">
   <path d="m3.78,-30.02l12.85,0c3.82,0 6.75,0.86 8.79,2.55c2.04,1.7 3.06,4.12 3.06,7.25c0,3.15 -1.02,5.57 -3.06,7.27c-2.04,1.7 -4.97,2.54 -8.79,2.54l-5.11,0l0,10.41l-7.74,0l0,-30.02zm7.74,5.61l0,8.39l4.28,0c1.5,0 2.65,-0.36 3.47,-1.09c0.82,-0.74 1.23,-1.77 1.23,-3.11c0,-1.34 -0.41,-2.37 -1.23,-3.09c-0.82,-0.73 -1.97,-1.1 -3.47,-1.1l-4.28,0z" id="svg_13"/>
  </symbol>
  <symbol id="p" overflow="visible">
   <path d="m3.45,-22.52l7.21,0l0,22.52l-7.21,0l0,-22.52zm0,-8.76l7.21,0l0,5.87l-7.21,0l0,-5.87z" id="svg_14"/>
  </symbol>
  <symbol id="o" overflow="visible">
   <path d="m26.09,-13.7l0,13.7l-7.23,0l0,-10.5c0,-1.94 -0.05,-3.27 -0.14,-4.02c-0.09,-0.73 -0.23,-1.28 -0.44,-1.62c-0.28,-0.47 -0.67,-0.83 -1.15,-1.09c-0.49,-0.26 -1.03,-0.4 -1.65,-0.4c-1.5,0 -2.68,0.58 -3.54,1.74c-0.86,1.16 -1.28,2.76 -1.28,4.81l0,11.08l-7.21,0l0,-22.52l7.21,0l0,3.3c1.08,-1.31 2.23,-2.28 3.45,-2.91s2.57,-0.93 4.05,-0.93c2.59,0 4.56,0.79 5.9,2.39c1.35,1.59 2.03,3.92 2.03,6.97z" id="svg_15"/>
  </symbol>
  <symbol id="n" overflow="visible">
   <path d="m18.28,-31.28l0,4.72l-3.98,0c-1.03,0 -1.74,0.19 -2.14,0.56c-0.4,0.37 -0.6,1.01 -0.6,1.92l0,1.56l6.16,0l0,5.15l-6.16,0l0,17.37l-7.2,0l0,-17.37l-3.58,0l0,-5.15l3.58,0l0,-1.56c0,-2.45 0.68,-4.27 2.05,-5.44c1.37,-1.17 3.49,-1.76 6.36,-1.76l5.51,0z" id="svg_16"/>
  </symbol>
  <symbol id="m" overflow="visible">
   <path d="m26.09,-13.7l0,13.7l-7.23,0l0,-10.45c0,-1.97 -0.05,-3.32 -0.14,-4.07c-0.09,-0.73 -0.23,-1.28 -0.44,-1.62c-0.28,-0.47 -0.67,-0.83 -1.15,-1.09c-0.49,-0.26 -1.03,-0.39 -1.65,-0.39c-1.5,0 -2.68,0.57 -3.54,1.73c-0.86,1.16 -1.28,2.76 -1.28,4.81l0,11.08l-7.21,0l0,-31.28l7.21,0l0,12.06c1.08,-1.31 2.23,-2.28 3.45,-2.91s2.57,-0.93 4.05,-0.93c2.59,0 4.56,0.79 5.9,2.39c1.35,1.59 2.03,3.92 2.03,6.97z" id="svg_17"/>
  </symbol>
  <symbol id="l" overflow="visible">
   <path d="m3.78,-30.02l8.64,0l10.92,20.6l0,-20.6l7.33,0l0,30.02l-8.64,0l-10.9,-20.59l0,20.59l-7.35,0l0,-30.02z" id="svg_18"/>
  </symbol>
  <symbol id="k" overflow="visible">
   <path d="m3.45,-22.52l7.21,0l0,22.11c0,3.02 -0.73,5.32 -2.18,6.91c-1.44,1.59 -3.54,2.39 -6.29,2.39l-3.55,0l0,-4.73l1.23,0c1.38,0 2.32,-0.31 2.82,-0.93c0.51,-0.61 0.76,-1.82 0.76,-3.64l0,-22.11zm0,-8.76l7.21,0l0,5.87l-7.21,0l0,-5.87z" id="svg_19"/>
  </symbol>
 </defs>
 <g class="layer">
  <title>Layer 1</title>
  <g id="svg_20">
   <path d="m97.84,433.24l83.99,0l0,51.88l-20.69,14.02c-2.26,1.53 -3.61,4.09 -3.61,6.82l0,32.94c0,4.55 3.69,8.23 8.24,8.23l45.21,0c2.29,0 4.47,-0.95 6.03,-2.62l19.04,-20.43l214.62,0l19.04,20.43c1.56,1.67 3.74,2.62 6.03,2.62l58.47,0c4.55,0 8.24,-3.68 8.24,-8.23l0,-32.94c0,-2.73 -1.35,-5.29 -3.61,-6.82l-20.69,-14.02l0,-51.88l84.01,0c4.55,0 8.24,-3.69 8.24,-8.23l0,-77.58c0,-4.55 -3.69,-8.24 -8.24,-8.24l-42.16,0l-0.01,-145.19c0,-3.16 -1.8,-6.04 -4.65,-7.41l-29.44,-14.22l0,-37.66c0,-4.55 -3.68,-8.23 -8.23,-8.23l-104.59,0l0,-25.04c0,-22.7 -18.47,-41.18 -41.18,-41.18l-13.67,0l0,-39.16c0,-4.55 -3.69,-8.23 -8.24,-8.23l-75.04,0c-26.73,0 -48.49,21.75 -48.49,48.48c0,26.74 21.76,48.49 48.49,48.49l11.96,0l0,16.64l-104.67,0c-4.55,0 -8.24,3.68 -8.24,8.23l0,37.66l-29.36,14.22c-2.85,1.38 -4.65,4.26 -4.65,7.41l0.01,145.19l-42.17,0c-4.55,0 -8.23,3.69 -8.23,8.24l0,77.57c-0.01,4.55 3.68,8.24 8.23,8.24l0.01,0zm428.14,77.09l0,20.33l-46.66,0l-19.05,-20.43c-4.65,-4.99 3.73,-1.65 -227.8,-2.62c-2.28,0 -4.46,0.95 -6.02,2.62l-19.04,20.43l-33.4,0l0,-20.34l20.68,-14.02c2.26,-1.53 3.61,-4.09 3.61,-6.82l0,-56.24l303.39,0l0,56.25c0,7.32 7.13,8.05 24.3,20.84l-0.01,0zm-11.89,-325.38l29.43,14.22l0,17.18l-24.02,0l0,16.47l24.02,0l0.01,106.37l-50.79,0l0,-196.25l16.69,0l0,34.59c0,3.16 1.81,6.04 4.66,7.41l0,0.01zm-97.64,130.22l0,24.02l-58.22,0l0,-24.02l-16.47,0l0,24.02l-58.22,0l0,-24.02l-16.47,0l0,24.02l-43.35,0l0,-152.85l88.47,0l0,28.82c0,2.99 1.62,5.74 4.23,7.2l25.34,14.11l0,27.42l16.46,0l0,-27.42l25.34,-14.11c2.61,-1.46 4.23,-4.21 4.23,-7.2l0,-28.82l88.47,0l0.01,152.85l-43.35,0l0,-24.02l-16.47,0zm-45.13,-172.23l0,67.38l-21.33,11.89l-21.32,-11.89l0,-67.38l42.65,0zm104.92,26.92l-88.45,0l0,-26.93l88.45,0l0,26.93zm-233.3,-108.52c0,-17.65 14.37,-32.01 32.02,-32.01l66.81,0l0,30.92l-13.67,0c-19.95,0 -36.6,14.26 -40.36,33.1l-12.78,0c-17.65,0 -32.02,-14.36 -32.02,-32.01zm60.45,40.08c0,-13.62 11.08,-24.7 24.7,-24.7l43.82,0c13.62,0 24.7,11.08 24.7,24.7l0,25.04l-93.22,0l0,-25.04zm8.81,41.51l0,26.93l-88.44,0l0,-26.93c54.08,0 56.57,0 88.44,0zm-155.73,89.88l24.03,0l0,-16.47l-24.03,0l0,-17.19l29.37,-14.22c2.85,-1.37 4.65,-4.25 4.65,-7.41l0,-34.59l16.77,0l0,196.25l-50.78,0l-0.01,-106.37zm-50.39,122.84l487.86,0l0,22.31l-132.75,0.01l0,16.47l132.75,0l0,22.31l-487.86,0l0,-61.1z" id="svg_21"/>
   <path d="m148.43,372.12c-7.76,0 -14.07,6.32 -14.07,14.1c0,7.77 6.31,14.1 14.07,14.1c7.78,0 14.1,-6.33 14.1,-14.1c0,-7.78 -6.32,-14.1 -14.1,-14.1zm0,16.47c-1.31,0 -2.37,-1.07 -2.37,-2.37c-0.01,-1.31 1.06,-2.37 2.37,-2.37c1.32,0 2.4,1.06 2.4,2.37c-0.01,1.3 -1.08,2.37 -2.4,2.37z" id="svg_22"/>
   <path d="m201.61,400.31c7.78,0 14.1,-6.32 14.1,-14.1c0,-7.77 -6.32,-14.1 -14.1,-14.1c-7.75,0 -14.07,6.33 -14.07,14.1c0,7.78 6.32,14.1 14.07,14.1zm0,-16.47c1.33,0 2.41,1.07 2.41,2.37c0,1.31 -1.08,2.37 -2.41,2.37c-1.31,0 -2.37,-1.06 -2.37,-2.37c-0.01,-1.31 1.06,-2.37 2.37,-2.37z" id="svg_23"/>
   <path d="m254.78,400.31c7.78,0 14.1,-6.32 14.1,-14.1c0,-18.64 -28.17,-18.65 -28.17,0c0,7.78 6.32,14.1 14.07,14.1zm0,-16.47c1.33,0 2.41,1.07 2.41,2.37c0,1.33 -1.06,2.37 -2.41,2.37c-1.31,0 -2.37,-1.06 -2.37,-2.37c-0.01,-1.31 1.06,-2.37 2.37,-2.37z" id="svg_24"/>
   <path d="m341.77,167.05l16.47,0l0,32.25l-16.47,0l0,-32.25z" id="svg_25"/>
   <path d="m226.47,452.87l16.47,0l0,29.08l-16.47,0l0,-29.08z" id="svg_26"/>
   <path d="m254.78,452.87l16.47,0l0,29.08l-16.47,0l0,-29.08z" id="svg_27"/>
   <path d="m283.09,452.87l16.47,0l0,29.08l-16.47,0l0,-29.08z" id="svg_28"/>
   <use id="svg_29" x="70" xlink:href="#s" y="683.53"/>
   <use id="svg_30" x="100.22" xlink:href="#c" y="683.53"/>
   <use id="svg_31" x="120.53" xlink:href="#b" y="683.53"/>
   <use id="svg_32" x="148.45" xlink:href="#j" y="683.53"/>
   <use id="svg_33" x="176.24" xlink:href="#a" y="683.53"/>
   <use id="svg_34" x="195.92" xlink:href="#b" y="683.53"/>
   <use id="svg_35" x="223.85" xlink:href="#i" y="683.53"/>
   <use id="svg_36" x="267.66" xlink:href="#h" y="683.53"/>
   <use id="svg_37" x="297.13" xlink:href="#g" y="683.53"/>
   <use id="svg_38" x="338.31" xlink:href="#f" y="683.53"/>
   <use id="svg_39" x="370.18" xlink:href="#b" y="683.53"/>
   <use id="svg_40" x="398.11" xlink:href="#r" y="683.53"/>
   <use id="svg_41" x="422.51" xlink:href="#a" y="683.53"/>
   <use id="svg_42" x="442.2" xlink:href="#e" y="683.53"/>
   <use id="svg_43" x="470.48" xlink:href="#c" y="683.53"/>
   <use id="svg_44" x="490.79" xlink:href="#q" y="683.53"/>
   <use id="svg_45" x="529.64" xlink:href="#d" y="683.53"/>
   <use id="svg_46" x="559.82" xlink:href="#e" y="683.53"/>
   <use id="svg_47" x="588.11" xlink:href="#p" y="683.53"/>
   <use id="svg_48" x="602.22" xlink:href="#o" y="683.53"/>
   <use id="svg_49" x="631.53" xlink:href="#a" y="683.53"/>
   <use id="svg_50" x="70" xlink:href="#n" y="724.71"/>
   <use id="svg_51" x="193.75" xlink:href="#a" y="724.71"/>
   <use id="svg_52" x="213.43" xlink:href="#m" y="724.71"/>
   <use id="svg_53" x="285.01" xlink:href="#l" y="724.71"/>
   <use id="svg_54" x="420.72" xlink:href="#d" y="724.71"/>
   <use id="svg_55" x="499.5" xlink:href="#k" y="724.71"/>
   <use id="svg_56" x="565.95" xlink:href="#a" y="724.71"/>
  </g>
  <rect fill="#ffffff" height="68" id="svg_59" stroke="#ffffff" width="635" x="28.8" y="636.4"/>
 </g>
</svg>